# xmcd
#
# Track frame offsets: 
#        150
#        6214
#        25637
#        44275
#        60592
#        80666
#        99373
#        120083
#        136808
#        158226
#        174924
#        195867
#        222633
#        230927
#        257049
#        269231
#
# Disc length: 3772 seconds
#
# Revision: 4
# Processed by: cddbd v1.5.2PL0 Copyright (c) Steve Scherf et al.
# Submitted via: ExactAudioCopy v1.1
#
DISCID=d40eba10
DTITLE=Tech N9ne - Killer
DYEAR=2008
DGENRE=Hip-Hop
TTITLE0=Dr. Frazier's Office (Intro Skit)
TTITLE1=Like Yeah
TTITLE2=Wheaties (feat. Shawnna)
TTITLE3=Everybody Move
TTITLE4=Get The Fuck Outta Here (feat. The Popper and Paul Wall)
TTITLE5=The Waitress
TTITLE6=Crybaby
TTITLE7=Shit Is Real
TTITLE8=Blackboy (feat. Brother J, Ice Cube and Krizz Kaliko)
TTITLE9=Pillow Talkin' (feat. Scarface)
TTITLE10=Paint A Dark Picture (feat. Dirtball)
TTITLE11=Hope For A Higher Power
TTITLE12=Worst Case Scenario (Skit)
TTITLE13=Psycho Bitch II (feat. Liquid Assassin)
TTITLE14=Poisonous (feat. Liz Suwandi)
TTITLE15=Too Much (feat. Kutt Calhoun)
EXTD=
EXTT0=
EXTT1=
EXTT2=
EXTT3=
EXTT4=
EXTT5=
EXTT6=
EXTT7=
EXTT8=
EXTT9=
EXTT10=
EXTT11=
EXTT12=
EXTT13=
EXTT14=
EXTT15=
PLAYORDER=
